<?xml version="1.0" encoding="UTF-8"?>
<svg version="1.1" xmlns="http://www.w3.org/2000/svg" width="474" height="474">
<path d="M0 0 C1.48628488 -0.00346053 2.9725672 -0.00822775 4.45884418 -0.01418173 C8.52577154 -0.02666709 12.5924868 -0.02053264 16.65941477 -0.01122308 C21.05212218 -0.0044228 25.44479367 -0.01491867 29.8374939 -0.02316284 C38.43597952 -0.03649192 47.03438652 -0.03362611 55.6328752 -0.02492492 C62.62200677 -0.01814554 69.61111633 -0.01723276 76.60025024 -0.02049637 C78.09321844 -0.02118592 78.09321844 -0.02118592 79.61634761 -0.0218894 C81.63840223 -0.02284859 83.66045684 -0.02382123 85.68251145 -0.02480717 C104.63647637 -0.03335865 123.59039774 -0.02353073 142.54435551 -0.00740607 C158.80229723 0.00599689 175.06017468 0.00366873 191.31811523 -0.01016235 C210.20497158 -0.02622244 229.09178978 -0.0325347 247.978652 -0.02332556 C249.99320411 -0.02236993 252.00775623 -0.02142682 254.02230835 -0.02049637 C255.01346675 -0.02003354 256.00462515 -0.01957072 257.02581865 -0.01909386 C264.00530973 -0.01650526 270.98477658 -0.02087218 277.96426392 -0.02793503 C286.47171029 -0.03635497 294.97907364 -0.03405947 303.48651052 -0.0180928 C307.82585548 -0.01021676 312.16506208 -0.00710711 316.50440598 -0.01704025 C320.47932297 -0.02600148 324.45397378 -0.02103091 328.42886674 -0.0051076 C329.86414273 -0.00176583 331.29944136 -0.00344025 332.73470271 -0.01073496 C341.75879669 -0.05306952 350.2381553 0.05179781 357.6862793 5.69345093 C362.75220379 10.87999267 364.3353232 16.26395427 364.3112793 23.38095093 C363.71911382 27.54055231 362.66713567 30.84716637 360.3112793 34.38095093 C359.6512793 34.38095093 358.9912793 34.38095093 358.3112793 34.38095093 C357.91537297 35.3023367 357.91537297 35.3023367 357.51146853 36.24233633 C355.44221436 39.92953585 352.19439328 41.21631434 348.3112793 42.38095093 C343.39710455 42.95374627 338.4998049 42.92614914 333.5597229 42.89561462 C332.05438634 42.90094392 330.5490551 42.90801182 329.04373395 42.91666168 C324.91942554 42.93526548 320.79547675 42.92899191 316.67115355 42.91850865 C312.21840519 42.91151014 307.76573023 42.92751958 303.31300354 42.94050598 C294.59438404 42.96214083 285.87589509 42.96202032 277.15725757 42.95388044 C270.06989692 42.94757852 262.98257433 42.94871924 255.89521408 42.95515251 C254.88617838 42.95605417 253.87714267 42.95695582 252.83753013 42.9578848 C250.7876147 42.95973602 248.73769929 42.96159858 246.68778388 42.96347236 C227.46720085 42.98004926 208.24669122 42.97133279 189.0261126 42.95448678 C171.44759383 42.93979237 153.86924602 42.9544148 136.29074927 42.98325694 C118.23509092 43.01266104 100.17951144 43.0236201 82.1238302 43.01407474 C80.08087883 43.01305221 78.03792744 43.0120576 75.99497604 43.01109123 C74.48727621 43.01037665 74.48727621 43.01037665 72.94911779 43.00964763 C65.87290461 43.00748471 58.79676621 43.01728119 51.72056961 43.03186226 C43.09304216 43.04939212 34.46573261 43.04925891 25.8382137 43.0265106 C21.43790678 43.01537395 17.03798367 43.01219269 12.63769341 43.03081131 C8.60578006 43.04765143 4.57458419 43.04121785 0.54271702 43.01659452 C-0.91212154 43.01172232 -2.36701836 43.01519671 -3.82180803 43.02808196 C-12.43617157 43.09884593 -19.53930643 42.5615966 -26.6887207 37.38095093 C-31.02755777 32.89166688 -32.57504522 28.69235242 -32.8762207 22.56845093 C-32.71567599 15.33056016 -30.54482704 10.69892934 -26.02856445 5.17782593 C-18.45561128 -0.63779755 -9.10750539 -0.04628884 0 0 Z " fill="#fff" transform="translate(71.688720703125,215.61904907226563)"/>
<path d="M0 0 C1.49112237 -0.0034605 2.98224217 -0.00822769 4.47335666 -0.01418173 C8.55361597 -0.02666743 12.63366389 -0.0205325 16.71392381 -0.01122308 C21.12092712 -0.004423 25.5278946 -0.01491853 29.93489075 -0.02316284 C38.56111477 -0.0364918 47.18726041 -0.03362626 55.81348748 -0.02492492 C62.82455745 -0.01814593 69.83560547 -0.01723259 76.84667778 -0.02049637 C78.3442421 -0.02118592 78.3442421 -0.02118592 79.87206025 -0.0218894 C81.9003176 -0.02284858 83.92857494 -0.02382122 85.95683228 -0.02480717 C104.9684709 -0.0333585 123.9800661 -0.02353073 142.9916976 -0.00740607 C159.301692 0.00599893 175.61162235 0.00366701 191.9216156 -0.01016235 C210.86742598 -0.02621915 229.81319832 -0.03253672 248.75901455 -0.02332556 C250.77944656 -0.02236992 252.79987857 -0.02142681 254.82031059 -0.02049637 C256.31140542 -0.01980213 256.31140542 -0.01980213 257.83262338 -0.01909386 C264.83512657 -0.01650443 271.83760561 -0.02087393 278.84010506 -0.02793503 C287.37393035 -0.03635123 295.90767287 -0.03406725 304.44148869 -0.0180928 C308.79488649 -0.01021204 313.14814629 -0.0071152 317.50154305 -0.01704025 C321.48812688 -0.02599156 325.47444505 -0.0210472 329.46100485 -0.0051076 C330.90164659 -0.00176166 332.34231086 -0.00344967 333.78293807 -0.01073496 C342.74326593 -0.05256518 350.14416761 0.13712501 357.5790863 5.63095093 C361.9243617 10.07727924 363.75341232 15.08308062 364.3290863 21.27157593 C364.12496204 28.16076971 361.09521532 33.66461561 356.2665863 38.38095093 C350.60747641 41.79999649 345.5799911 42.50443184 339.05702686 42.515172 C337.7992162 42.51962985 336.54140554 42.52408769 335.2454794 42.52868062 C333.85219052 42.52859133 332.45890165 42.5284015 331.06561279 42.52812195 C329.58349533 42.53142245 328.10137877 42.53514841 326.61926335 42.53926343 C322.54529829 42.54927015 318.47134797 42.55299807 314.39737236 42.55565274 C310.00390189 42.55955965 305.61044303 42.56913763 301.21697998 42.5778656 C290.60713624 42.59761757 279.99729156 42.60769396 269.38743404 42.61659339 C264.39030968 42.62097778 259.39318637 42.62634415 254.39606285 42.63158226 C237.78388978 42.64859217 221.17171737 42.66308674 204.55953693 42.670331 C200.24972851 42.67224087 195.9399201 42.67416121 191.63011169 42.67611694 C190.02335564 42.67684255 190.02335564 42.67684255 188.38413986 42.67758282 C171.02855686 42.68588468 153.67304275 42.7112253 136.31748984 42.74369762 C118.49698632 42.77676798 100.67651781 42.79477968 82.85598344 42.79797524 C72.85114308 42.8001402 62.84640323 42.80888699 52.84159279 42.83443642 C44.32199814 42.85614295 35.80252842 42.86419399 27.28290925 42.85446963 C22.93734116 42.84992501 18.59203084 42.85182066 14.24649811 42.87123108 C10.26453401 42.88886371 6.28301571 42.88786443 2.30104687 42.87233379 C0.86427955 42.86995787 -0.57251865 42.87428048 -2.0092388 42.88616244 C-11.75818383 42.96176278 -20.09412289 42.34367849 -27.7334137 35.81845093 C-32.55275623 29.94487722 -33.26867581 24.88948898 -32.7334137 17.38095093 C-31.65856329 11.64841544 -28.29038465 6.94892986 -23.7334137 3.38095093 C-16.15474763 -0.32772085 -8.24990636 -0.04179043 0 0 Z " fill="#fff" transform="translate(71.73341369628906,314.6190490722656)"/>
<path d="M0 0 C1.26477745 -0.00445784 2.5295549 -0.00891569 3.83265895 -0.01350862 C5.23380833 -0.01341933 6.63495771 -0.01322949 8.03610706 -0.01294994 C9.52647412 -0.01625042 11.01684028 -0.01997637 12.50720531 -0.02409142 C16.6039735 -0.03409845 20.70072705 -0.03782612 24.79750574 -0.04048073 C29.21551629 -0.04438756 33.63351528 -0.05396554 38.05151844 -0.0626936 C48.7206879 -0.08244582 59.3898583 -0.09252199 70.05904147 -0.10142139 C75.08405937 -0.10580574 80.10907622 -0.11117211 85.13409328 -0.11641026 C101.83891265 -0.13342019 118.54373135 -0.14791477 135.24855804 -0.155159 C139.58242958 -0.15706886 143.9163011 -0.1589892 148.25017262 -0.16094494 C149.86590052 -0.16167055 149.86590052 -0.16167055 151.51426939 -0.16241082 C168.9668501 -0.17071272 186.41936231 -0.19605339 203.8719131 -0.22852562 C221.79185771 -0.2615956 239.71176749 -0.27960765 257.63174278 -0.28280324 C267.69247424 -0.28496823 277.75310576 -0.29371552 287.81380749 -0.31926441 C296.38097909 -0.34097044 304.94802647 -0.34902224 313.51522245 -0.33929763 C317.88509319 -0.33475285 322.2547076 -0.33664952 326.62454319 -0.35605907 C330.62871155 -0.37369065 334.63243658 -0.37269327 338.63660965 -0.35716178 C340.08145226 -0.35478571 341.52632556 -0.3591093 342.97112127 -0.37099043 C352.05587163 -0.44104195 360.91158705 -0.1841083 368.01311207 6.14203358 C371.92310062 12.46804491 373.7407936 18.15503791 372.27483082 25.59125233 C370.29636674 32.21910698 367.23272567 36.86464443 361.03914046 40.28614187 C356.13618445 42.10992004 350.85129475 41.68569588 345.68733692 41.65320301 C344.35187133 41.65908316 343.01641249 41.66671276 341.68096578 41.67593408 C338.02065601 41.69616669 334.36073445 41.69164728 330.70039439 41.68302655 C326.74752153 41.6780768 322.79474555 41.69617548 318.84190845 41.71144581 C311.98907845 41.73476787 305.13635426 41.74350569 298.28348637 41.74233723 C288.3395369 41.74066336 278.39572728 41.76105727 268.45181517 41.78669253 C252.27026865 41.82780551 236.08874732 41.85108791 219.90715504 41.86322498 C204.27171322 41.87498997 188.63631989 41.89509657 173.00090504 41.92670155 C172.04166786 41.92863765 171.08243068 41.93057375 170.0941257 41.93256852 C165.27705171 41.94234128 160.45997805 41.95227335 155.64290452 41.96227312 C126.04837354 42.02348552 96.45384069 42.07295761 66.85926175 42.10347199 C64.56547908 42.1058372 62.27169647 42.10825637 59.97791386 42.11067867 C58.88748344 42.11179991 58.88748344 42.11179991 57.77502413 42.1129438 C56.33331359 42.11443672 54.8916031 42.11598637 53.44989268 42.11759433 C49.98096879 42.12126393 46.51205696 42.12343031 43.04313111 42.12223959 C36.68655966 42.12114032 30.33078844 42.13258612 23.97441752 42.18725799 C20.96418181 42.21216082 17.9539235 42.22940906 14.94363157 42.2459425 C13.52330197 42.25579923 12.10299174 42.26925999 10.6827354 42.28673157 C-7.49302356 42.50810639 -7.49302356 42.50810639 -14.24079418 39.13422108 C-14.24079418 38.47422108 -14.24079418 37.81422108 -14.24079418 37.13422108 C-14.98329418 36.92797108 -15.72579418 36.72172108 -16.49079418 36.50922108 C-20.28351652 34.61285991 -21.36592378 32.95092153 -23.24079418 29.13422108 C-24.61517545 22.70052324 -25.25299705 15.18215966 -22.24079418 9.13422108 C-19.81252738 6.69548761 -17.17741184 4.90782184 -14.24079418 3.13422108 C-13.25079418 2.47422108 -12.26079418 1.81422108 -11.24079418 1.13422108 C-7.47015127 0.12222072 -3.89204129 0.00637267 0 0 Z " fill="#fff" transform="translate(63.24079418182373,117.86577892303467)"/>
<path d="M0 0 C45.94642165 -0.09156211 91.89283364 -0.16204209 137.83932855 -0.20426132 C143.26414236 -0.20926412 148.68895599 -0.21444142 154.11376953 -0.21972656 C155.19374897 -0.2207758 156.27372842 -0.22182505 157.38643451 -0.22290608 C174.87166086 -0.24030972 192.3568346 -0.27184721 209.84202974 -0.30861118 C227.78441163 -0.3460217 245.72676598 -0.36823609 263.66918528 -0.37635398 C274.73998334 -0.38184151 285.81063265 -0.3991714 296.88138492 -0.43166587 C304.47375668 -0.45281509 312.06605158 -0.4591991 319.65845065 -0.45400551 C324.03841784 -0.45144438 328.41812516 -0.45536128 332.79804611 -0.4768219 C336.81165767 -0.49634372 340.82483556 -0.49723375 344.83846743 -0.48359558 C346.28682757 -0.48191099 347.7352152 -0.48693758 349.18352155 -0.49953273 C357.42508927 -0.56701041 364.74196623 -0.26247357 372 4 C374.625 6.75 374.625 6.75 376 9 C375.67 9.66 375.34 10.32 375 11 C374.01 10.34 373.02 9.68 372 9 C370.34416775 8.30686092 368.67889021 7.63525576 367 7 C367 5.68 367 4.36 367 3 C362.82188322 2.21089517 358.87339287 1.8716564 354.62384224 1.8613348 C353.35439015 1.85586036 352.08493805 1.85038591 350.77701771 1.84474558 C349.37585082 1.84366951 347.97468386 1.84268479 346.57351685 1.84178162 C345.07928424 1.83721352 343.5850529 1.83221313 342.09082305 1.82681805 C337.98841378 1.81325573 333.88601278 1.80582411 329.78358698 1.79939139 C325.35828337 1.79137907 320.93299693 1.77768415 316.50770569 1.76467896 C308.8417731 1.74292802 301.17583877 1.72477847 293.50989151 1.70907402 C282.42621433 1.68636281 271.34255618 1.65822171 260.25889514 1.62875474 C242.27644631 1.58109418 224.29398969 1.53782583 206.31152344 1.49731445 C188.8430928 1.45795172 171.37466907 1.41652362 153.90625 1.37231445 C152.82952094 1.36959018 151.75279187 1.36686591 150.64343466 1.36405908 C145.24180866 1.35037948 139.84018276 1.33665923 134.43855691 1.32291877 C89.62571902 1.20897812 44.81286618 1.10216343 0 1 C0 0.67 0 0.34 0 0 Z " fill="#fff" transform="translate(57,118)"/>
<path d="M0 0 C3.79139846 -0.11771717 7.58231735 -0.18775198 11.375 -0.25 C12.96634766 -0.30027344 12.96634766 -0.30027344 14.58984375 -0.3515625 C21.75510639 -0.43947983 27.69474431 0.42250629 34 4 C36.625 6.75 36.625 6.75 38 9 C37.67 9.66 37.34 10.32 37 11 C36.01 10.34 35.02 9.68 34 9 C32.34416775 8.30686092 30.67889021 7.63525576 29 7 C29 5.68 29 4.36 29 3 C23.0827441 1.78174143 17.14248484 1.66352622 11.125 1.4375 C10.05507813 1.39431641 8.98515625 1.35113281 7.8828125 1.30664062 C5.25532246 1.20107183 2.62774578 1.09896209 0 1 C0 0.67 0 0.34 0 0 Z " fill="#fff" transform="translate(395,118)"/>
<path d="M0 0 C2.84826499 2.84826499 2.71429645 5.34898476 3.03125 9.265625 C2.9675089 14.84297143 1.09198875 19.28921763 -1.875 23.9375 C-4.1523974 26.14791513 -5.9845658 27.07861733 -9 28 C-8.38125 27.484375 -7.7625 26.96875 -7.125 26.4375 C-4.52136853 23.45098155 -4.03261038 20.78623805 -3 17 C-2.48953125 16.58234375 -1.9790625 16.1646875 -1.453125 15.734375 C0.86231944 12.97078003 0.28414412 10.32390298 0.1875 6.8125 C0.16042969 5.54019531 0.13335937 4.26789063 0.10546875 2.95703125 C0.07066406 1.98121094 0.03585937 1.00539062 0 0 Z " fill="#fff" transform="translate(433,129)"/>
<path d="M0 0 C0.33 0 0.66 0 1 0 C0.96519531 0.80824219 0.93039063 1.61648437 0.89453125 2.44921875 C0.86746094 3.51785156 0.84039062 4.58648437 0.8125 5.6875 C0.77769531 6.74324219 0.74289063 7.79898438 0.70703125 8.88671875 C1.03503494 12.37230467 2.11235203 14.10828396 4 17 C3.6875 19.3125 3.6875 19.3125 3 21 C-1.19138945 15.89743894 -1.33460883 11.49913303 -1 5 C-0.5 2 -0.5 2 0 0 Z " fill="#fff" transform="translate(40,229)"/>
<path d="M0 0 C3.67420866 0.30618405 4.78135513 0.75771784 7.3125 3.5625 C8.1478125 4.7690625 8.1478125 4.7690625 9 6 C8.67 6.66 8.34 7.32 8 8 C7.01 7.34 6.02 6.68 5 6 C3.34416775 5.30686092 1.67889021 4.63525576 0 4 C0 2.68 0 1.36 0 0 Z " fill="#fff" transform="translate(424,121)"/>
<path d="M0 0 C2 2 2 2 2.25 4.4375 C2 7 2 7 0 10 C-0.38499891 11.65549531 -0.72793135 13.3222433 -1 15 C-1.33 15 -1.66 15 -2 15 C-1.85879286 13.06215735 -1.71187127 11.12473045 -1.5625 9.1875 C-1.48128906 8.10855469 -1.40007813 7.02960938 -1.31640625 5.91796875 C-1 3 -1 3 0 0 Z " fill="#fff" transform="translate(41,127)"/>
<path d="M0 0 C0.66 0 1.32 0 2 0 C3 1 4 2 5 3 C5.66 3 6.32 3 7 3 C6.67 4.32 6.34 5.64 6 7 C3 6 3 6 1.3125 2.9375 C0.879375 1.968125 0.44625 0.99875 0 0 Z " fill="#fff" transform="translate(41,147)"/>
<path d="" fill="#fff" transform="translate(0,0)"/>
</svg>
